<svg width="256" height="256" viewBox="0 0 256 256" fill="none" xmlns="http://www.w3.org/2000/svg">
  <defs>
    <linearGradient id="financeBg" x1="0" y1="0" x2="256" y2="256" gradientUnits="userSpaceOnUse">
      <stop stop-color="#E7F1FF" />
      <stop offset="1" stop-color="#CFE6FF" />
    </linearGradient>
  </defs>
  <circle cx="128" cy="128" r="124" fill="url(#financeBg)" />
  <ellipse cx="128" cy="220" rx="72" ry="18" fill="#B7CCE6" />
  <path d="M86 103C88 70 168 70 170 103V128H86V103Z" fill="#334155" />
  <circle cx="128" cy="112" r="34" fill="#F4C6A5" />
  <rect x="102" y="102" width="20" height="13" rx="6.5" stroke="#0F172A" stroke-width="3" fill="none" />
  <rect x="134" y="102" width="20" height="13" rx="6.5" stroke="#0F172A" stroke-width="3" fill="none" />
  <path d="M122 108H134" stroke="#0F172A" stroke-width="3" stroke-linecap="round" />
  <circle cx="116" cy="109" r="2.8" fill="#1F2937" />
  <circle cx="140" cy="109" r="2.8" fill="#1F2937" />
  <path d="M117 124C123 130 133 130 139 124" stroke="#8A4B3A" stroke-width="4" stroke-linecap="round" />
  <path d="M72 224C72 186 96 161 128 161C160 161 184 186 184 224V232H72V224Z" fill="#5B84B1" />
  <rect x="98" y="183" width="60" height="40" rx="8" fill="#EEF4FF" />
  <rect x="108" y="194" width="40" height="4" rx="2" fill="#A9C7F3" />
  <rect x="108" y="203" width="32" height="4" rx="2" fill="#C3D8F7" />
  <path d="M97 157C108 166 148 166 159 157" stroke="#E5B58E" stroke-width="4" stroke-linecap="round" />
</svg>
