<svg width="900" height="780" viewBox="0 0 900 780" fill="none" xmlns="http://www.w3.org/2000/svg">
  <defs>
    <linearGradient id="calcBody" x1="0" y1="0" x2="1" y2="1">
      <stop offset="0" stop-color="#87D8FF"/>
      <stop offset="1" stop-color="#5CAFF6"/>
    </linearGradient>
    <linearGradient id="screenBg" x1="0" y1="0" x2="0" y2="1">
      <stop offset="0" stop-color="#27365E"/>
      <stop offset="1" stop-color="#1F2F55"/>
    </linearGradient>
    <linearGradient id="paperBg" x1="0" y1="0" x2="1" y2="1">
      <stop offset="0" stop-color="#FFFFFF"/>
      <stop offset="1" stop-color="#F2F0FF"/>
    </linearGradient>
    <linearGradient id="coinFront" x1="0" y1="0" x2="1" y2="1">
      <stop offset="0" stop-color="#FFE59A"/>
      <stop offset="1" stop-color="#F7C44D"/>
    </linearGradient>
    <linearGradient id="coinEdge" x1="0" y1="0" x2="1" y2="1">
      <stop offset="0" stop-color="#E5AA3D"/>
      <stop offset="1" stop-color="#D38D1A"/>
    </linearGradient>
    <filter id="softShadow" x="-20%" y="-20%" width="140%" height="140%">
      <feDropShadow dx="0" dy="18" stdDeviation="16" flood-color="#6A8FB5" flood-opacity="0.28"/>
    </filter>
    <filter id="tinyShadow" x="-30%" y="-30%" width="160%" height="160%">
      <feDropShadow dx="0" dy="7" stdDeviation="5" flood-color="#6A8FB5" flood-opacity="0.34"/>
    </filter>
    <style>
      .paper-line { fill: #B8A9F8; opacity: 0.92; }
      .paper-line-blue { fill: #76B6F4; opacity: 0.98; }
      .calc-key { fill: #FFFFFF; opacity: 0.98; }
    </style>
  </defs>

  <ellipse cx="468" cy="686" rx="286" ry="42" fill="#8AB3D8" opacity="0.32"/>

  <g transform="translate(168 254) rotate(-8 145 190)" filter="url(#softShadow)">
    <path d="M54 0H249C272 0 288 17 288 40V342C288 365 270 383 247 383H82C59 383 42 366 42 343V20C42 9 46 0 54 0Z" fill="url(#paperBg)"/>
    <path d="M42 330L115 338L112 381H81C59 381 42 365 42 342V330Z" fill="#F3F1FF"/>
    <rect class="paper-line-blue" x="92" y="68" width="128" height="10" rx="5"/>
    <rect class="paper-line-blue" x="92" y="90" width="92" height="10" rx="5"/>
    <rect class="paper-line-blue" x="196" y="90" width="52" height="10" rx="5"/>

    <rect class="paper-line" x="92" y="132" width="82" height="10" rx="5"/>
    <rect class="paper-line" x="178" y="132" width="64" height="10" rx="5"/>
    <rect class="paper-line" x="92" y="154" width="58" height="10" rx="5"/>
    <rect class="paper-line" x="154" y="154" width="92" height="10" rx="5"/>
    <rect class="paper-line" x="92" y="176" width="148" height="10" rx="5"/>
    <rect class="paper-line" x="92" y="198" width="104" height="10" rx="5"/>
    <rect class="paper-line" x="200" y="198" width="40" height="10" rx="5"/>
    <rect class="paper-line" x="92" y="220" width="68" height="10" rx="5"/>
    <rect class="paper-line" x="164" y="220" width="80" height="10" rx="5"/>
    <rect class="paper-line" x="92" y="242" width="154" height="10" rx="5"/>
    <rect class="paper-line" x="92" y="264" width="96" height="10" rx="5"/>
    <rect class="paper-line" x="192" y="264" width="54" height="10" rx="5"/>
    <rect class="paper-line" x="92" y="286" width="126" height="10" rx="5"/>
    <rect class="paper-line" x="92" y="308" width="84" height="10" rx="5"/>
    <rect class="paper-line" x="180" y="308" width="60" height="10" rx="5"/>
  </g>

  <g transform="translate(360 140) rotate(-19 220 272)" filter="url(#softShadow)">
    <rect x="0" y="0" width="438" height="548" rx="26" fill="url(#calcBody)"/>
    <rect x="18" y="18" width="402" height="512" rx="22" fill="#8ED8FF" opacity="0.48"/>
    <rect x="58" y="56" width="322" height="156" rx="12" fill="url(#screenBg)"/>
    <rect x="58" y="56" width="322" height="156" rx="12" fill="#405984" opacity="0.2"/>

    <g transform="translate(72 248)">
      <rect class="calc-key" x="0" y="0" width="84" height="72" rx="11"/>
      <rect class="calc-key" x="110" y="0" width="84" height="72" rx="11"/>
      <rect class="calc-key" x="220" y="0" width="84" height="72" rx="11"/>

      <rect class="calc-key" x="0" y="98" width="84" height="72" rx="11"/>
      <rect class="calc-key" x="110" y="98" width="84" height="72" rx="11"/>
      <rect class="calc-key" x="220" y="98" width="84" height="72" rx="11"/>

      <rect class="calc-key" x="0" y="196" width="84" height="72" rx="11"/>
      <rect x="110" y="196" width="194" height="72" rx="11" fill="#C8F3F5"/>
    </g>
  </g>

  <g transform="translate(128 112)" filter="url(#tinyShadow)">
    <ellipse cx="74" cy="74" rx="74" ry="74" fill="url(#coinFront)"/>
    <ellipse cx="74" cy="74" rx="61" ry="61" fill="#F7DA82"/>
    <ellipse cx="74" cy="74" rx="58" ry="58" stroke="#E4B95D" stroke-width="3" fill="none"/>
  </g>

  <g transform="translate(736 268) rotate(17 68 62)" filter="url(#tinyShadow)">
    <ellipse cx="68" cy="62" rx="68" ry="62" fill="url(#coinFront)"/>
    <ellipse cx="68" cy="62" rx="56" ry="50" fill="#F7DA82"/>
    <ellipse cx="68" cy="62" rx="53" ry="47" stroke="#E4B95D" stroke-width="3" fill="none"/>
    <path d="M10 62C10 91 35 114 68 114" stroke="url(#coinEdge)" stroke-width="5" opacity="0.45"/>
  </g>

  <g transform="translate(418 646) rotate(12 86 54)" filter="url(#tinyShadow)">
    <ellipse cx="86" cy="54" rx="86" ry="54" fill="url(#coinEdge)"/>
    <ellipse cx="86" cy="47" rx="78" ry="47" fill="url(#coinFront)"/>
    <ellipse cx="86" cy="47" rx="66" ry="39" fill="#F7DA82"/>
    <ellipse cx="86" cy="47" rx="63" ry="36" stroke="#E4B95D" stroke-width="3" fill="none"/>
  </g>
</svg>
