<svg width="512" height="512" viewBox="0 0 512 512" xmlns="http://www.w3.org/2000/svg" role="img" aria-label="Dummy QRIS">
  <rect width="512" height="512" fill="#ffffff"/>
  <rect x="16" y="16" width="480" height="480" rx="20" fill="#f7fbfa" stroke="#0d8f7a" stroke-width="8"/>

  <g fill="#0f3d3a">
    <rect x="56" y="56" width="96" height="96"/>
    <rect x="72" y="72" width="64" height="64" fill="#f7fbfa"/>
    <rect x="88" y="88" width="32" height="32"/>

    <rect x="360" y="56" width="96" height="96"/>
    <rect x="376" y="72" width="64" height="64" fill="#f7fbfa"/>
    <rect x="392" y="88" width="32" height="32"/>

    <rect x="56" y="360" width="96" height="96"/>
    <rect x="72" y="376" width="64" height="64" fill="#f7fbfa"/>
    <rect x="88" y="392" width="32" height="32"/>

    <rect x="192" y="196" width="20" height="20"/>
    <rect x="224" y="196" width="20" height="20"/>
    <rect x="256" y="196" width="20" height="20"/>
    <rect x="288" y="196" width="20" height="20"/>
    <rect x="320" y="196" width="20" height="20"/>

    <rect x="192" y="228" width="20" height="20"/>
    <rect x="256" y="228" width="20" height="20"/>
    <rect x="320" y="228" width="20" height="20"/>

    <rect x="192" y="260" width="20" height="20"/>
    <rect x="224" y="260" width="20" height="20"/>
    <rect x="288" y="260" width="20" height="20"/>
    <rect x="320" y="260" width="20" height="20"/>

    <rect x="224" y="292" width="20" height="20"/>
    <rect x="256" y="292" width="20" height="20"/>
    <rect x="320" y="292" width="20" height="20"/>

    <rect x="192" y="324" width="20" height="20"/>
    <rect x="224" y="324" width="20" height="20"/>
    <rect x="288" y="324" width="20" height="20"/>
    <rect x="320" y="324" width="20" height="20"/>
  </g>

  <text x="256" y="474" text-anchor="middle" font-family="Arial, sans-serif" font-size="22" fill="#0d8f7a">DUMMY QRIS</text>
</svg>
